
<global>
amp_veltrack=0
ampeg_attack=0.01
ampeg_release=0.25
</global>

<group>
group_label=PP
lpc_hicc1=42
lpc_locc1=0

<region>
hikey=a3
hivel=127
lokey=g#3
loop_end=242830
loop_mode=loop_continuous
loop_start=54090
loop_xfade=24814
lovel=1
lpc=RAikQr/3IMO1crVC8Rr3wQCF8UHnWBrBUJbjP6BlhcGwtv1AkHQKQvlMKcI7RsNBlGulweU7i0Hm9jjBK3bsQAAMG8GtoSHAWcqyQSsevsFZ8y9B5fH+P3PvUMCazU8/
lpc_rms=-22.09
offset=5750
pitch_keycenter=a3
sample=Alto_accent_sustain_PP_A3.opus
tune=+14
</region>

<region>
hikey=a4
hivel=127
lokey=g#4
loop_end=264625
loop_mode=loop_continuous
loop_start=58945
loop_xfade=27042
lovel=1
lpc=MULcQstScsNCtUtDKvnmwlgVh0I9etDBU2psQHHH7MHIVDJCacSBQfatVsLKrylCR3UCwjJ7CEIJpeDBLwWDQTZDXsHHo8y/jEbOQav2x8FbZNVATwEOQCIHWsFHfWNB
lpc_rms=-23.45
offset=2730
pitch_keycenter=a4
sample=Alto_accent_sustain_PP_A4.opus
tune=-33
</region>

<region>
hikey=B5
hivel=127
lokey=g#5
loop_end=292078
loop_mode=loop_continuous
loop_start=65060
loop_xfade=29847
lovel=1
lpc=rOVSQq91vcIOEIhC4veKwXomi8CaV0RBrN0jwSsmp8AIZn9B0C8/wE+fBsFMdmVAIODLQL2E18BDnv5ATOxUwY8dYEGtT8Y/i4FNwcEJ60Cvqwo/APTgP/u8zkDW91DB
lpc_rms=-28.56
offset=752
pitch_keycenter=A5
sample=Alto_accent_sustain_PP_A5.opus
tune=-69
</region>

<region>
hikey=b3
hivel=127
lokey=a#3
loop_end=273780
loop_mode=loop_continuous
loop_start=60985
loop_xfade=27977
lovel=1
lpc=6mQTQpL9msL1/1JCgaygwYu3jUHvTI/B9AlmQdPRUsFXYiNBCQQXwNRUsz+Ap9K/mS+JwEGR50CZ4DjAJfDNvwVuMT6hnAa9PYP8P3UTmr4p9xbAKQWoQL8wv8Di1SZA
lpc_rms=-29.39
offset=168
pitch_keycenter=b3
sample=Alto_accent_sustain_PP_B3.opus
tune=+17
</region>

<region>
hikey=b4
hivel=127
lokey=a#4
loop_end=250467
loop_mode=loop_continuous
loop_start=55791
loop_xfade=25595
lovel=1
lpc=dO/BQkuSX8OtRTVDrn6ZwnrVEULLR5nBHNSmQXL7CMJpZhxCRo98wA0xv8HDyhdBt83iwD4NrkDjqlRAWvN6QCFGY8GNN4lBN0KswPWTtECiD1TBAqmbQfypB8KgnrFB
lpc_rms=-25.37
offset=564
pitch_keycenter=b4
sample=Alto_accent_sustain_PP_B4.opus
tune=-33
</region>

<region>
hivel=127
key=c#3
loop_end=236746
loop_mode=loop_continuous
loop_start=52735
loop_xfade=24193
lovel=1
lpc=kjGQQrwbFMOd7sxCC9xEws4kHULXj4/Bp09lv0cIMcE7zAVBlLDsQT54GMIMKp5BSMiZwe0Zi0HBb3vAiVERQPc6/MDl8zVAGdKSQNi20T+/SxbAXU83PwAxYsCPSbs/
lpc_rms=-18.98
offset=5400
sample=Alto_accent_sustain_PP_C#3.opus
tune=-13
</region>

<region>
hikey=c#4
hivel=127
lokey=c4
loop_end=275612
loop_mode=loop_continuous
loop_start=61393
loop_xfade=28164
lovel=1
lpc=iNy5QqXLX8OTdD5DBhqtwnvRDkJE8SXBeZYsQdxSCMJ1NBtCNoZwQaMEbMIeS0FCcIjHwaNLOEFXHB/BVpzVQNWQq8GNDgBCiseDwJinDL/8tXjBEld+QTfUcMHWfvtA
lpc_rms=-22.90
offset=3725
pitch_keycenter=c#4
sample=Alto_accent_sustain_PP_C#4.opus
tune=-12
</region>

<region>
hikey=c#5
hivel=127
lokey=c5
loop_end=252116
loop_mode=loop_continuous
loop_start=56159
loop_xfade=25763
lovel=1
lpc=hZY5Qsu/2sKoEdpCG/yQwoORQULNP7zBuA5qQKEXFcFYA3xBFN58PtmVSMGSLmpB44uFwc2ZfEEMsATBRWbYQJ91DMGT8AVBOpXewD3Dv0Dz48TAoLr+QPzJDcFe8spA
lpc_rms=-26.19
offset=1389
pitch_keycenter=c#5
sample=Alto_accent_sustain_PP_C#5.opus
tune=-45
</region>

<region>
hikey=d#3
hivel=127
lokey=d3
loop_end=257668
loop_mode=loop_continuous
loop_start=57395
loop_xfade=26331
lovel=1
lpc=0mQbQrhym8K8AkxCDdbGwQY/mkErC3vAdhqxwL8bEr9S1p8/g9WNQQIjz8EmontBHSxEwfpBOkHLWPXARdzNQOAot8DOtAS/Tc32QNcGCcFQYrlAR1Wev1I63r9CPY8/
lpc_rms=-25.56
offset=4851
pitch_keycenter=d#3
sample=Alto_accent_sustain_PP_D#3.opus
tune=+10
</region>

<region>
hikey=d#4
hivel=127
lokey=d4
loop_end=283657
loop_mode=loop_continuous
loop_start=63184
loop_xfade=28986
lovel=1
lpc=ZJGhQhsROMN6rRBDNnKCwvLgEUJVbjjBhsLWQHD3IMI20WJC30lEwZR/gcGL795AkbadwAMdHUDcGTE9R1l8QO9umMFArOFBhwBpwfuKIUAEBI2/OLWIPwjmtcAvSbJA
lpc_rms=-25.82
offset=4110
pitch_keycenter=d#4
sample=Alto_accent_sustain_PP_D#4.opus
tune=-15
</region>

<region>
hikey=d#5
hivel=127
lokey=d5
loop_end=245276
loop_mode=loop_continuous
loop_start=54635
loop_xfade=25064
lovel=1
lpc=ZgYjQmmWxcK4dc5C6WNvwuR56kGtIJbBoLtKQbDQnsFojOdBrcs5wciZ8sAkYt1A68OovpdK4EDnSkzBcNROQVTkQcEGoR5BTNSRwL/BHEBC1J3A4FwgQbBwKcEOc+BA
lpc_rms=-29.01
pitch_keycenter=d#5
sample=Alto_accent_sustain_PP_D#5.opus
tune=-44
</region>

<region>
hikey=f3
hivel=127
lokey=e3
loop_end=266417
loop_mode=loop_continuous
loop_start=59344
loop_xfade=27225
lovel=1
lpc=DlKYQV5LF8Jkm8NBo7MXwaU23UC1rbe/9MMnwP7aB8DZPlNAISbFQKoKFsHlCmpAH2LVv/pNUUCxQz7AQwkqQMv5ScD8OxU/cP9JQG7HjMCLpkZAipAUv3wuYL9Bm04/
lpc_rms=-32.98
pitch_keycenter=f3
sample=Alto_accent_sustain_PP_F3.opus
tune=+15
</region>

<region>
hikey=f4
hivel=127
lokey=e4
loop_end=244462
loop_mode=loop_continuous
loop_start=54454
loop_xfade=24981
lovel=1
lpc=SeIHQ5+6msNAnGhDDCi5wrcUUkLRzyPB+KgswBj6KcIilVNCa23nQUXIh8LMarVBlk1xwVxn8kFImZvBUVN1QYB4c8HQRInAdODbQTB68sHhelVBaf7iQJ07lMEGhjNB
lpc_rms=-22.02
offset=5220
pitch_keycenter=f4
sample=Alto_accent_sustain_PP_F4.opus
tune=-24
</region>

<region>
hikey=f5
hivel=127
lokey=e5
loop_end=226710
loop_mode=loop_continuous
loop_start=50499
loop_xfade=23167
lovel=1
lpc=Znw8Qsdb2MIjT85CpwpMwgHa80EEnObBm3yhQVukT8E+LnxBm5bRwI6R5MDgawNBlL+PQJeTN8CdFgPBNW2CQYhug8GhTntBsgTXwM9e/b8wXaJAtwTeQCO6jcGaQlZB
lpc_rms=-25.41
pitch_keycenter=f5
sample=Alto_accent_sustain_PP_F5.opus
tune=-50
</region>

<region>
hikey=g3
hivel=127
lokey=f#3
loop_end=259500
loop_mode=loop_continuous
loop_start=57804
loop_xfade=26518
lovel=1
lpc=IR1MQqznz8LfYYBCK+nTwSwLzUHktvbACMLUwMn4JMCxogxAjLjAQWIPCsJWY75Bx314wW2qdkFkURTB9WtkP3CVF8ABBGO/1sF0QceEzcGRAZZBEfgPwQ0gjEBxmkG/
lpc_rms=-23.87
offset=5637
pitch_keycenter=g3
sample=Alto_accent_sustain_PP_G3.opus
tune=+20
</region>

<region>
hikey=g4
hivel=127
lokey=f#4
loop_end=245286
loop_mode=loop_continuous
loop_start=54637
loop_xfade=25065
lovel=1
lpc=DTcOQzmVnsM0x2ZD0MO+wluOm0KcaMzBmT6RwTgKF8JDDXhCp8HpQV+cYcK93wBBFqPawUx9JELX/nzBw6S/Qc5hy8F+gh7AOf6QQcf2YsFm1S1Bz5UgQfD/K8Lch+FB
lpc_rms=-21.21
offset=1837
pitch_keycenter=g4
sample=Alto_accent_sustain_PP_G4.opus
tune=-29
</region>

<region>
hikey=g5
hivel=127
lokey=f#5
loop_end=227944
loop_mode=loop_continuous
loop_start=50774
loop_xfade=23293
lovel=1
lpc=T1OUQr9gD8N/KwFD1N59wv28HkJjNBbCweQxQq3MOsJ73GFCgqkRwhwzdUG/Y6tAynCPwO+zsz6wGSxBfjoJwalS8EBnEk0+0FM/QRWdbsFyrK9Bq0BzwSCBw0BoJfNA
lpc_rms=-21.26
pitch_keycenter=g5
sample=Alto_accent_sustain_PP_G5.opus
tune=-66
</region>
</group>

<group>
group_label=MF
lpc_hicc1=84
lpc_locc1=43

<region>
hikey=a3
hivel=127
lokey=g#3
loop_end=253875
loop_mode=loop_continuous
loop_start=56551
loop_xfade=25943
lovel=1
lpc=9ACGQrBJIMOdMQpDkaJiwtYZZEFt/tLAUTddQfx11ME5K6xBK/YkQaRMp8Hftt1AWZ5zwNA4JUHq4aHBO+nuQdTZs8GP68i/2zmGQNb0QkAHSY1A2mYBweIkhUDB0G++
lpc_rms=-17.86
offset=5277
pitch_keycenter=a3
sample=Alto_accent_sustain_MF_A3.opus
tune=+11
</region>

<region>
hikey=a4
hivel=127
lokey=g#4
loop_end=283364
loop_mode=loop_continuous
loop_start=63119
loop_xfade=28956
lovel=1
lpc=k36LQhG9NcM4EElDaSMEw6uzYEJASVbBt1AXwEdX9r12oU7AF6DrQd2DKMLCGANCEHVIweM8IkBKnz7BmPviQbqyvsGykkPAtFS4QXT11cGK7olBD1jHwCylwcCJaQZB
lpc_rms=-17.26
offset=1285
pitch_keycenter=a4
sample=Alto_accent_sustain_MF_A4.opus
tune=-31
</region>

<region>
hikey=B5
hivel=127
lokey=g#5
loop_end=291829
loop_mode=loop_continuous
loop_start=65005
loop_xfade=29821
lovel=1
lpc=oh/UQUwNOcIh3jhCFDOrwbEghUAkL5JAs3NPQLjAmsDuaFBAdz4PQZGmF8FJ1tVAAvytP8IvHUA6J5G/lCcIP88KrUDEZ04/HkqHwHTh2EB+U6JARWxLwb43kkHCMuXA
lpc_rms=-20.51
pitch_keycenter=A5
sample=Alto_accent_sustain_MF_A5.opus
tune=-54
</region>

<region>
hikey=b3
hivel=127
lokey=a#3
loop_end=268244
loop_mode=loop_continuous
loop_start=59751
loop_xfade=27411
lovel=1
lpc=vhbaQZY8dsLheFFCNrLdwS0/UkEzlnPAr+ChP9qMosAaDYNAH9PmQIb3NsHfQeNA8IpjwPSbNUDYEMLA9qMDQQV0tcAsgwq/Fo07QPm8ZMB34NtAeDuYwF/VJz9eWCY+
lpc_rms=-25.22
offset=4221
pitch_keycenter=b3
sample=Alto_accent_sustain_MF_B3.opus
tune=+19
</region>

<region>
hikey=b4
hivel=127
lokey=a#4
loop_end=278383
loop_mode=loop_continuous
loop_start=62010
loop_xfade=28447
lovel=1
lpc=G8ESQrf4tMJWhapC+zQkwjVpA0HVjdhAYZ0KwdneckBA1t1AGEciwF7XE8GkvcpAYeSuP1gmzMBUMJk/FdngQDkynMC0/Y2/e+nBQNTBWMDQAIe+nZ/LQLiVeMEpnxtB
lpc_rms=-21.03
offset=607
pitch_keycenter=b4
sample=Alto_accent_sustain_MF_B4.opus
tune=-36
</region>

<region>
hivel=127
key=c#3
loop_end=249074
loop_mode=loop_continuous
loop_start=55481
loop_xfade=25452
lovel=1
lpc=2awEQhxxpcJakKBC/sBFwj9pEEJxDMfBrTU2QFshrEBYZeu+WYFOQXZH6sHo+rRBQ4cQwWKp5kAqNITA9q7QwDJyt0AgvKw/BySKQDc5A8GkFzZAfdbbvkUQ7j94YK6/
lpc_rms=-15.42
offset=5257
sample=Alto_accent_sustain_MF_C#3.opus
tune=-13
</region>

<region>
hikey=c#4
hivel=127
lokey=c4
loop_end=258064
loop_mode=loop_continuous
loop_start=57484
loop_xfade=26371
lovel=1
lpc=XrZsQuljD8NyWghDp5y+wnDTokKqFn/CErESQkdnlsHfu4VArL68QZkVDcKOWe9BfMLbwQmQyUFEetzBMjzOQfb5ScFTpgy/0paCvVkjk0Aq85c+DDexQOCQbMGoUu1A
lpc_rms=-19.26
offset=582
pitch_keycenter=c#4
sample=Alto_accent_sustain_MF_C#4.opus
tune=-8
</region>

<region>
hikey=c#5
hivel=127
lokey=c5
loop_end=243933
loop_mode=loop_continuous
loop_start=54336
loop_xfade=24927
lovel=1
lpc=V3PKQYQgh8KsxqFC+QBiwlli10HHDlrBzvZMQd1LkcFD/r9Br+GbwaThhkC4GxBBFGcKwRJInUBlaojAOe2cQBvBysBEAQdBSKDHwKjKQr94gYRAfBqPPpfFmcDP8nZA
lpc_rms=-22.13
offset=269
pitch_keycenter=c#5
sample=Alto_accent_sustain_MF_C#5.opus
tune=-27
</region>

<region>
hikey=d#3
hivel=127
lokey=d3
loop_end=262671
loop_mode=loop_continuous
loop_start=58510
loop_xfade=26842
lovel=1
lpc=T1Y8QkdA68LmHtpCpI50wg8eJEIkGa/BL74Hv1Ki+76kxB5B3aftQNraz8HswH1BpBvHwDkbIEElGinBAGYIQQN7J8HO4N9APt2gPU1AaD8HKUjAZfndQC0QKsEmoKdA
lpc_rms=-16.42
offset=5321
pitch_keycenter=d#3
sample=Alto_accent_sustain_MF_D#3.opus
tune=+5
</region>

<region>
hikey=d#4
hivel=127
lokey=d4
loop_end=276333
loop_mode=loop_continuous
loop_start=61553
loop_xfade=28238
lovel=1
lpc=jzwnQngs2MI7vOpCsiCtwqwVZUIlBcTB7xLRv2/0NMBArEFB5CzUQBosmcEzKklBvl0UwYzgi0Be/XxAuZzjwNevGkHHBkzBJNscQYk59rzFSR7B87SAQY63jsE/sg5B
lpc_rms=-22.53
offset=267
pitch_keycenter=d#4
sample=Alto_accent_sustain_MF_D#4.opus
tune=-23
</region>

<region>
hikey=d#5
hivel=127
lokey=d5
loop_end=263186
loop_mode=loop_continuous
loop_start=58625
loop_xfade=26894
lovel=1
lpc=qwZeQa6TBcLNFRdC5DLCwX2MSkHRLjXBmsNOQRhtW8HoTE5BJWe/wC9EKMCRSZlAWmT4PvammD5j2cXAPeoFQSX/o8DFsDhAANkLwJmdBkCM0ZjAB9IUQQH1DcEJ8ZNA
lpc_rms=-23.55
offset=6863
pitch_keycenter=d#5
sample=Alto_accent_sustain_MF_D#5.opus
tune=-36
</region>

<region>
hikey=f3
hivel=127
lokey=e3
loop_end=236627
loop_mode=loop_continuous
loop_start=52709
loop_xfade=24180
lovel=1
lpc=kWnOQSfHbsKAlUdC5/3GwQm0jkFJpzfB+M8HQA3hg8C8SgZBj34OQJaUPMFMAb1AuTdgPy+atj/Ap3HAd+aEP3Ldkr0JnYu/vdKKQG+gg8CSHwpAf57WP2LWhMC/zPk/
lpc_rms=-22.70
offset=4950
pitch_keycenter=f3
sample=Alto_accent_sustain_MF_F3.opus
tune=+6
</region>

<region>
hikey=f4
hivel=127
lokey=e4
loop_end=267146
loop_mode=loop_continuous
loop_start=59507
loop_xfade=27299
lovel=1
lpc=DKi/QmTLd8OiCXBDHFYOw3fjqkKirC/CtkgdQhIYfMJjum5Cv0vQwHvft8GtZem/1mqHP3dRjUHoiObBl34SQhA6kMH2Wg2/LEkIPwgi2T8hGAu/AyM2wHnLf78mr1ZA
lpc_rms=-18.52
offset=3857
pitch_keycenter=f4
sample=Alto_accent_sustain_MF_F4.opus
tune=-17
</region>

<region>
hikey=f5
hivel=127
lokey=e5
loop_end=240074
loop_mode=loop_continuous
loop_start=53476
loop_xfade=24533
lovel=1
lpc=zc8jQZXAusF0GttBpkKowRrXcUGqUkTBzX8qQVJRFcG94iNBZkIWwVl8tEBYiu6/qwncPyWjmL9yi9e+ZUk1QMjPUcDsGzdAVkCJv3kDGj8j/Yu+4yqfP7tot7/VZKs/
lpc_rms=-19.51
pitch_keycenter=f5
sample=Alto_accent_sustain_MF_F5.opus
tune=-38
</region>

<region>
hikey=g3
hivel=127
lokey=f#3
loop_end=246005
loop_mode=loop_continuous
loop_start=54797
loop_xfade=25139
lovel=1
lpc=92wtQl+I2sKVcstCqo5cwj3nHUIaDeTByy0JQXwzgMGMmNdBtRVBQEHm5MGH+69BDqeawf826kFlWs/BMwJMQfTyCMGagoY/X5RTQUT0uMHp/9JBBMKgwZVLIUGTE0HA
lpc_rms=-15.53
offset=4430
pitch_keycenter=g3
sample=Alto_accent_sustain_MF_G3.opus
tune=+7
</region>

<region>
hikey=g4
hivel=127
lokey=f#4
loop_end=256036
loop_mode=loop_continuous
loop_start=57032
loop_xfade=26164
lovel=1
lpc=kFeoQq1TVMMIn1VDDd0Nw3Van0JaELbBy4IEQeYByMEz+aRBRkrQQRKLS8LclQNC7fOkwRjAeUA3BYzAhQrQQbRfosEIDKg+5KuHQWNVwMEx6dRBzfqRwZf/E8G5AUtB
lpc_rms=-16.12
offset=4109
pitch_keycenter=g4
sample=Alto_accent_sustain_MF_G4.opus
tune=-26
</region>

<region>
hikey=g5
hivel=127
lokey=f#5
loop_end=254366
loop_mode=loop_continuous
loop_start=56660
loop_xfade=25993
lovel=1
lpc=j2TCQU8GPsLyvClC+LNAwe6MRMDDYzJAWJpmQMpbCcDnMBtAn99UQKgGB8GGDhdBxdYSQDOkfsClHpi/9deSQN6wlD+BY1w/+F9evk2bHsA7jqdAr23FQMgoX8EiyTdB
lpc_rms=-20.54
offset=7420
pitch_keycenter=g5
sample=Alto_accent_sustain_MF_G5.opus
tune=-35
</region>
</group>

<group>
group_label=FF
lpc_hicc1=127
lpc_locc1=85

<region>
hikey=a3
hivel=127
lokey=g#3
loop_end=251123
loop_mode=loop_continuous
loop_start=55938
loop_xfade=25662
lovel=1
lpc=IXDbQXhZiMIcqIZCRaAcwuYmtEGnjKbB8rupQbx4nMEZrSFBmqrtQPc0Y8Hwv9pA1Y18P0bZKD2hfbnA1BgjQex5JMFPdqQ+EW3rQCZmyMBSBNtABnX3wDC/d0DRNRa+
lpc_rms=-15.23
offset=6025
pitch_keycenter=a3
sample=Alto_accent_sustain_FF_A3.opus
tune=-4
</region>

<region>
hikey=a4
hivel=127
lokey=g#4
loop_end=265553
loop_mode=loop_continuous
loop_start=59152
loop_xfade=27136
lovel=1
lpc=5lG/QWDud8IVQJNC5DVjwo/CBEIQ6KrBSPGXQVgFiMEPjthAPVK+QCqzx8CMdP4/kravP3wxlz5REenAuTiEQTEolcFgGTdBQBF8wJMdjL4AYK2/icKPQAp11sCfv5BA
lpc_rms=-9.80
offset=7439
pitch_keycenter=a4
sample=Alto_accent_sustain_FF_A4.opus
tune=-31
</region>

<region>
hikey=B5
hivel=127
lokey=g#5
loop_end=306299
loop_mode=loop_continuous
loop_start=68228
loop_xfade=31300
lovel=1
lpc=VQFhQY2JVcFHLzxBVa1Cv5L/hUDUGUnAG1ILQflYdb9+DDo/WpmUQCamzz/catE/P+qJPpd340DCERPA0Wo5QMtaaUAb1Ps/XbfBPiR+IkDzALlA6aNLwLnNi0BIvIdA
lpc_rms=-16.70
offset=331
pitch_keycenter=A5
sample=Alto_accent_sustain_FF_A5.opus
tune=-56
</region>

<region>
hikey=b3
hivel=127
lokey=a#3
loop_end=267212
loop_mode=loop_continuous
loop_start=59522
loop_xfade=27306
lovel=1
lpc=CSyTQWywMMK2OCxCdSS9wUHDC0GM4n/A0BlOQFHAh8BDW2tAZHTvPyZ/wcBa66hAYsM2wNM9AEBm1CzAjGiLQEDuj8CaCtS/JHfcQAPbrcDiu1BAy9ufvxPrJj86eg6/
lpc_rms=-18.00
offset=6185
pitch_keycenter=b3
sample=Alto_accent_sustain_FF_B3.opus
tune=-1
</region>

<region>
hikey=b4
hivel=127
lokey=a#4
loop_end=256611
loop_mode=loop_continuous
loop_start=57160
loop_xfade=26223
lovel=1
lpc=oHo7QWwC98FxDBdC7Dv7wQIPt0HdvZfB+B6JQYNOTcF+TedANHAHwK0heD6wphq/GYPLPy5WIMA72Zc/+KmvPwFTJ8AfgAhAoyZov9knXj8R9Hy/6EUfP6H3Xr4dsTo+
lpc_rms=-14.30
offset=3660
pitch_keycenter=b4
sample=Alto_accent_sustain_FF_B4.opus
tune=-34
</region>

<region>
hivel=127
key=c#3
loop_end=254576
loop_mode=loop_continuous
loop_start=56707
loop_xfade=26015
lovel=1
lpc=HXZrQY6xE8KjsCFC1EvywRgarEF2XILBlHpCQZVVLcH26hRBvnVqwOAezj4FLai/iAGBPyxfs74ZkrA/3Q1HwJ58eUDMzxbAfzYBPtG2hj+Hi4G/U3hRP3zP271vj7a+
lpc_rms=-12.30
offset=5422
sample=Alto_accent_sustain_FF_C#3.opus
tune=-11
</region>

<region>
hikey=c#4
hivel=127
lokey=c4
loop_end=263795
loop_mode=loop_continuous
loop_start=58760
loop_xfade=26957
lovel=1
lpc=pZ2gQcpiTMIXRGVClOMowhl+x0FsF2DBP3O+QNVeNr9l/BbA9w+uQLADdMAVd/09SqYBQIbWYj7ZqrfAWNMLQVbtBcHZkvs/BAyYQH7mhMDrAoE/r18LP/vOmb0gyiW+
lpc_rms=-16.12
offset=1163
pitch_keycenter=c#4
sample=Alto_accent_sustain_FF_C#4.opus
tune=-23
</region>

<region>
hikey=c#5
hivel=127
lokey=c5
loop_end=251566
loop_mode=loop_continuous
loop_start=56036
loop_xfade=25707
lovel=1
lpc=w+m2QFgfPcFtqFVB2IguwVeo9kDaE53ATb0CQPCi/DxWNri/2I4VQNKtK8Bpxx1A34XKv0Clej/gkIq/HJb7P4Z+sr9k5AA9mw+tP6EF7r/YJeU/ZkcMvzmq1L6xlyI/
lpc_rms=-17.24
offset=224
pitch_keycenter=c#5
sample=Alto_accent_sustain_FF_C#5.opus
tune=-38
</region>

<region>
hikey=d#3
hivel=127
lokey=d3
loop_end=254415
loop_mode=loop_continuous
loop_start=56671
loop_xfade=25998
lovel=1
lpc=mL27QXRFd8LsyYdCQaFBwhYVAkKl8KbBUO8GQWoXZ79N29G+cA+mQNlDKsG9ExZBWVTJwNBKjEB9WC7AbhXQP7FIA8B/CIBAEbdBwJIdG78/qxNA7Q2FvqcWRcCAwBJA
lpc_rms=-13.47
offset=3977
pitch_keycenter=d#3
sample=Alto_accent_sustain_FF_D#3.opus
tune=-1
</region>

<region>
hikey=d#4
hivel=127
lokey=d4
loop_end=282322
loop_mode=loop_continuous
loop_start=62887
loop_xfade=28850
lovel=1
lpc=XMczQZyF8cGnPhxC0ekLwg0cxUFdMGfB9JG5QK5zTL83/IW/2hQ1QJFSYMD3OQ1AIZ6FPzJKQ8AQJNU/JIhZP7N8vr9O6JS+zSQhQBcbasA1pTpA4k/Uvufx9787qbs/
lpc_rms=-17.97
offset=4698
pitch_keycenter=d#4
sample=Alto_accent_sustain_FF_D#4.opus
tune=-27
</region>

<region>
hikey=d#5
hivel=127
lokey=d5
loop_end=280868
loop_mode=loop_continuous
loop_start=62563
loop_xfade=28701
lovel=1
lpc=1UKSQPgaG8EKHjpB1YIVwbQUzEBUTojAHxM/QF2wHsA+wsM/EoGFve59VL4M44G+XLRfP3JmaL4m5jS/Z2fpPznV0r+GVVU/G1atvvejfj9HyvG/698wQJwvEMCQVJo/
lpc_rms=-17.12
offset=6907
pitch_keycenter=d#5
sample=Alto_accent_sustain_FF_D#5.opus
tune=-36
</region>

<region>
hikey=f3
hivel=127
lokey=e3
loop_end=270731
loop_mode=loop_continuous
loop_start=60305
loop_xfade=27666
lovel=1
lpc=DmbMQZ5ggcLvQoFC4L0Xwku4mkE5g1DBnIdXQYiiP8FWiTVAH6kbQa7qSMGTGN1A01x7v0R4VMBsCcy+EpA2QZ/9bsFm8d9AfekDwHmPI0CFSPi/6LubQG3/4MA1SkNA
lpc_rms=-19.71
offset=4571
pitch_keycenter=f3
sample=Alto_accent_sustain_FF_F3.opus
tune=+11
</region>

<region>
hikey=f4
hivel=127
lokey=e4
loop_end=257312
loop_mode=loop_continuous
loop_start=57316
loop_xfade=26294
lovel=1
lpc=vJO1QZJheMIEkZdCWSd1wt2SH0KxGLrBctk4QbFIZMC8SzG/aY/QQPOuE8FgEndAHcaVQConC8F6r5pAioowPyWhpcBngBFBgnuqwMyfR8Ag+elAnejTwLPEAEBw01Q/
lpc_rms=-12.61
offset=2901
pitch_keycenter=f4
sample=Alto_accent_sustain_FF_F4.opus
tune=-18
</region>

<region>
hikey=f5
hivel=127
lokey=e5
loop_end=239862
loop_mode=loop_continuous
loop_start=53429
loop_xfade=24511
lovel=1
lpc=UP5zQILx4sAioARBKiHswPIr1ECZB7XAbGKiQDIyg8AxbDpApmXGv9a7hD/49na/Zqu3P5sQkb/Y2l0/MKNaPa0UDL/VbVY/Q8Xyvua5bj85MpW/7sL6P7JMzb8cBW0/
lpc_rms=-15.77
offset=229
pitch_keycenter=f5
sample=Alto_accent_sustain_FF_F5.opus
tune=-25
</region>

<region>
hikey=g3
hivel=127
lokey=f#3
loop_end=267660
loop_mode=loop_continuous
loop_start=59621
loop_xfade=27352
lovel=1
lpc=yzDiQfp/j8JcIpJC7Z8ywqKO00ErJb3BotfEQfnXusGVVTtBH6K9QN6CFcHZt6xAhXWQwNjUlECgROLA5xo7QSNfLMHqfy8/t5HfQP4F/8DwGwtBO5XzwF0YjUCY9by/
lpc_rms=-13.57
offset=4400
pitch_keycenter=g3
sample=Alto_accent_sustain_FF_G3.opus
tune=-1
</region>

<region>
hikey=g4
hivel=127
lokey=f#4
loop_end=249379
loop_mode=loop_continuous
loop_start=55549
loop_xfade=25484
lovel=1
lpc=rSHBQRQLgsIXS5xCIZqCwlCiRUJKqwnCJ1OtQaflisHUnV9BK0L+v/NkMMC8po/AezYVQaNKDMGxGVJAaCLnPz1nMMCxpkVA7jgkvwaMV8BY4u5AS9UAwTpvXUBp28O9
lpc_rms=-11.46
offset=1510
pitch_keycenter=g4
sample=Alto_accent_sustain_FF_G4.opus
tune=-28
</region>

<region>
hikey=g5
hivel=127
lokey=f#5
loop_end=253032
loop_mode=loop_continuous
loop_start=56363
loop_xfade=25857
lovel=1
lpc=rf8PQXF7fcE2OGlBzl/qwFovWEAXErW/bwJDQH1QHcBXniBA0DMbwPX+GEA+sRA/8WxdvTwkHz+MRDm/yNyfPwzElb8e+UFAQsvov+MdJ0BvgFLA+aeUQKSNfsA8ZlhA
lpc_rms=-17.05
offset=8509
pitch_keycenter=g5
sample=Alto_accent_sustain_FF_G5.opus
tune=-39
</region>
</group>